<svg id="Layer_1" data-name="Layer 1" xmlns="http://www.w3.org/2000/svg" viewBox="0 0 27.86 35.46"><defs><style>.cls-1{fill:#fff;}.cls-2{fill:#fffdfd;}</style></defs><title>logo</title><rect width="27.86" height="30.39"/><path class="cls-1" d="M56.56,20.52c-.37.09-.73.2-1.1.26a8,8,0,0,1-6-1.16,8,8,0,0,1-3.61-5.21A8,8,0,0,1,48,6.93a7.89,7.89,0,0,1,4.19-2.39,8.48,8.48,0,0,1,5.58.71A6,6,0,0,1,59.8,6.78a.82.82,0,0,1-1,1.28c-.23-.17-.45-.37-.67-.56A6.19,6.19,0,0,0,54.42,6a6.64,6.64,0,0,0-4.49,11.9,6.35,6.35,0,0,0,3,1.28.49.49,0,0,1,.23.13,4.36,4.36,0,0,0,2.1,1c.33.06.67.06,1,.09l.33,0Z" transform="translate(-41.71 -2.03)"/><path class="cls-1" d="M59.93,13s1.32,0,1.34,0a.94.94,0,0,0,.62-.73,1,1,0,0,0-.58-1.1c-.25,0-5.6.05-5.6.05Z" transform="translate(-41.71 -2.03)"/><circle class="cls-1" cx="14.56" cy="13.8" r="4.65"/><circle cx="14.56" cy="13.8" r="3.29"/><path class="cls-2" d="M57,21.43a6.48,6.48,0,0,0,2.19-.95,4.53,4.53,0,0,1,2.56,4.2c0,3.14-1.22,4.54-3.48,5.68a5.78,5.78,0,0,1-7-2.45,5.32,5.32,0,0,1-.61-3.23s.8-1.21,1.73.13a4,4,0,0,0,2.32,3.79,3.82,3.82,0,0,0,5-2.11,3.77,3.77,0,0,0-.52-3.57A3.26,3.26,0,0,0,57,21.43Z" transform="translate(-41.71 -2.03)"/><circle class="cls-1" cx="9.57" cy="20.2" r="0.87"/><path d="M43.64,36.27v.15c0,.45-.07,1.07-.9,1.07s-.88-.45-.88-1.05v-2c0-.61.28-1,.89-1s.87.49.87,1v.17H43v-.24c0-.26-.06-.41-.27-.41s-.27.14-.27.41V36.5c0,.25.05.45.28.45s.27-.17.27-.46v-.22Z" transform="translate(-41.71 -2.03)"/><path d="M44.87,33.53h.6V36.9h1l-.05.53H44.87Z" transform="translate(-41.71 -2.03)"/><path d="M49.41,34.57v1.82c0,.75-.32,1.1-1,1.1s-.92-.36-.92-1.09V34.56c0-.75.38-1.09,1-1.09S49.41,33.82,49.41,34.57Zm-1.28-.06v2c0,.33.11.48.33.48s.34-.14.34-.49v-2c0-.31-.1-.48-.34-.48S48.13,34.18,48.13,34.51Z" transform="translate(-41.71 -2.03)"/><path d="M51.08,34.09h-.63v-.56h1.86v.56h-.63v3.34h-.6Z" transform="translate(-41.71 -2.03)"/><path d="M53.45,33.53h.61v1.54h.65V33.53h.6v3.9h-.6v-1.8h-.65v1.8h-.61Z" transform="translate(-41.71 -2.03)"/><path d="M58.48,37.43H58a2.26,2.26,0,0,1,0-.29.57.57,0,0,1-.58.35c-.58,0-.76-.41-.76-1.08V34.58c0-.64.25-1.11.92-1.11.83,0,.91.61.91,1v.12h-.6v-.15c0-.21,0-.45-.31-.45s-.31.15-.31.47v2c0,.31.09.48.31.48s.32-.22.32-.62v-.57h-.34v-.52h.95Z" transform="translate(-41.71 -2.03)"/><path d="M60.45,35.69v1.74h-.61v-3.9h.84c.59,0,.94.24.94.94v.15c0,.6-.24.75-.39.81.22.11.35.28.35.81a11,11,0,0,0,0,1.19H61a8.63,8.63,0,0,1,0-1.16c0-.47-.06-.58-.41-.58Zm0-.5h.13c.32,0,.44-.12.44-.54v-.14c0-.3-.06-.48-.4-.48h-.17Z" transform="translate(-41.71 -2.03)"/><path d="M63.51,36.39l-.14,1h-.61l.63-3.9h.85l.65,3.9h-.63l-.15-1Zm.53-.55c-.09-.67-.17-1.3-.22-1.74h0c0,.32-.14,1.16-.21,1.74Z" transform="translate(-41.71 -2.03)"/><path d="M68.06,36c0-.66,0-1.49,0-1.94h0c-.09.68-.31,2.26-.47,3.39H67c-.13-1-.35-2.68-.44-3.39h0c0,.46,0,1.34,0,2v1.38h-.54v-3.9H67c.16,1,.31,2.1.37,2.65h0c.06-.55.28-1.71.43-2.65h.87v3.9h-.57Z" transform="translate(-41.71 -2.03)"/></svg>