<svg id="Layer_1" data-name="Layer 1" xmlns="http://www.w3.org/2000/svg" viewBox="0 0 90.8 30.75"><defs><style>.cls-1{fill:#fff;}</style></defs><title>logo</title><path d="M14,23.54c-.42.1-.83.22-1.25.3A9,9,0,0,1,6,22.52,9,9,0,0,1,2,16.64,9.1,9.1,0,0,1,4.33,8.19a9,9,0,0,1,4.73-2.7,9.66,9.66,0,0,1,6.3.8A7.13,7.13,0,0,1,17.7,8a1,1,0,0,1,.26.9.93.93,0,0,1-1.42.55c-.26-.19-.5-.42-.75-.63a6.92,6.92,0,0,0-4.17-1.68A7.49,7.49,0,0,0,6.55,20.6,7,7,0,0,0,9.89,22a.64.64,0,0,1,.25.15,4.84,4.84,0,0,0,2.38,1.16c.37.06.75.06,1.13.1l.38,0Z" transform="translate(-1.74 -5.28)"/><path d="M17.28,15.68s1.47,0,1.49,0a1,1,0,0,0,.69-.81,1.1,1.1,0,0,0-.65-1.23c-.27,0-6.22.06-6.22.06Z" transform="translate(-1.74 -5.28)"/><circle cx="11.47" cy="13.55" r="5.17"/><circle class="cls-1" cx="11.53" cy="13.55" r="3.29"/><path d="M14.18,24.49a8.17,8.17,0,0,0,2.68-1.17A5.55,5.55,0,0,1,20,28.47c0,3.85-1.49,5.57-4.26,7a7.1,7.1,0,0,1-8.61-3,6.56,6.56,0,0,1-.76-4s1-1.49,2.13.16a4.9,4.9,0,0,0,2.84,4.65,4.6,4.6,0,0,0,5.53-7A4,4,0,0,0,14.18,24.49Z" transform="translate(-1.74 -5.28)"/><circle cx="5.46" cy="20.19" r="1.07"/><path d="M28.43,32.88v.39c0,1.15-.19,2.76-2.31,2.76-1.85,0-2.25-1.16-2.25-2.69V28.28c0-1.54.7-2.57,2.28-2.57,1.88,0,2.24,1.25,2.24,2.64v.45H26.84v-.63c0-.67-.16-1.05-.7-1.05s-.69.37-.69,1.05v5.3c0,.65.13,1.16.71,1.16s.71-.44.71-1.19v-.56Z" transform="translate(-1.74 -5.28)"/><path d="M31.59,25.86h1.54V34.5h2.52l-.13,1.38H31.59Z" transform="translate(-1.74 -5.28)"/><path d="M43.24,28.52V33.2c0,1.92-.82,2.83-2.52,2.83s-2.36-.94-2.36-2.81V28.51c0-1.92,1-2.8,2.46-2.8S43.24,26.59,43.24,28.52Zm-3.3-.15v5c0,.83.3,1.22.85,1.22s.87-.36.87-1.25v-5c0-.8-.24-1.24-.87-1.24S39.94,27.52,39.94,28.37Z" transform="translate(-1.74 -5.28)"/><path d="M47.5,27.29H45.9V25.86h4.77v1.43H49.05v8.59H47.5Z" transform="translate(-1.74 -5.28)"/><path d="M53.61,25.86h1.54v3.95h1.66V25.86h1.55v10H56.81V31.24H55.15v4.64H53.61Z" transform="translate(-1.74 -5.28)"/><path d="M66.49,35.88h-1.2c0-.18-.07-.54-.09-.75a1.5,1.5,0,0,1-1.5.9c-1.48,0-2-1.07-2-2.77V28.55c0-1.63.63-2.84,2.38-2.84,2.1,0,2.32,1.55,2.32,2.63v.32H64.91v-.4c0-.53-.08-1.14-.79-1.14s-.8.39-.8,1.19v5.13c0,.8.23,1.22.79,1.22s.84-.56.84-1.59V31.6h-.88V30.28h2.42Z" transform="translate(-1.74 -5.28)"/><path d="M71.55,31.4v4.48H70v-10h2.14c1.53,0,2.43.61,2.43,2.41v.39c0,1.54-.64,1.93-1,2.09.58.27.91.69.91,2a26.9,26.9,0,0,0,.1,3.08h-1.5a22.13,22.13,0,0,1-.1-3c0-1.22-.16-1.5-1-1.5Zm0-1.28h.35c.82,0,1.12-.31,1.12-1.4v-.34c0-.77-.16-1.25-1-1.25h-.43Z" transform="translate(-1.74 -5.28)"/><path d="M79.41,33.2l-.36,2.68H77.48l1.62-10h2.18l1.68,10H81.34L81,33.2Zm1.35-1.42c-.23-1.7-.44-3.32-.56-4.45h-.06c0,.82-.34,3-.54,4.45Z" transform="translate(-1.74 -5.28)"/><path d="M91.07,32.15c0-1.7,0-3.82.05-5h0c-.23,1.74-.78,5.8-1.22,8.7H88.43c-.33-2.6-.89-6.88-1.12-8.71h0c0,1.16.08,3.43.08,5.16v3.55H86v-10h2.3c.39,2.55.79,5.4.93,6.81h0c.16-1.43.7-4.41,1.1-6.81h2.23v10H91.07Z" transform="translate(-1.74 -5.28)"/></svg>