<svg id="Layer_1" data-name="Layer 1" xmlns="http://www.w3.org/2000/svg" viewBox="0 0 23.53 38.24"><defs><style>.cls-1{fill:#fff;}</style></defs><title>logo-small</title><path d="M23.25,23.94c-.53.12-1.06.28-1.59.38A11.54,11.54,0,0,1,13,22.63a11.6,11.6,0,0,1-5.24-7.55,11.67,11.67,0,0,1,3-10.85A11.52,11.52,0,0,1,16.86.77,12.36,12.36,0,0,1,25,1.8,8.86,8.86,0,0,1,28,4a1.2,1.2,0,0,1,.33,1.15,1.18,1.18,0,0,1-1.81.71c-.34-.25-.65-.54-1-.81a9,9,0,0,0-5.36-2.16,9.62,9.62,0,0,0-6.5,17.25A9.08,9.08,0,0,0,17.92,22a.65.65,0,0,1,.33.19,6.28,6.28,0,0,0,3.05,1.48c.48.08,1,.09,1.45.13l.49,0Z" transform="translate(-7.47 -0.5)"/><path d="M28.13,13s1.92,0,1.95,0A1.31,1.31,0,0,0,31,12a1.41,1.41,0,0,0-.83-1.6c-.36,0-8.12.07-8.12.07Z" transform="translate(-7.47 -0.5)"/><circle cx="15.36" cy="16.64" r="6.74"/><circle class="cls-1" cx="15.36" cy="16.64" r="4.76"/><path d="M23.85,25.26s2.58-.68,3.17-1.38A6.57,6.57,0,0,1,30.73,30c0,4.55-1.76,6.58-5,8.23a8.38,8.38,0,0,1-10.18-3.55,7.76,7.76,0,0,1-.9-4.68s1.17-1.76,2.52.19a5.8,5.8,0,0,0,3.36,5.49A5.43,5.43,0,0,0,27,27.42,4.72,4.72,0,0,0,23.85,25.26Z" transform="translate(-7.47 -0.5)"/><circle cx="8.13" cy="25.92" r="1.26"/></svg>